HIERARCHY
ROOT Hips
{
	OFFSET 0.000000 0.000000 0.000000
	CHANNELS 6 Xposition Yposition Zposition Zrotation Yrotation Xrotation 
	JOINT LHipJoint
	{
		OFFSET 0.000000 0.000000 0.000000
		CHANNELS 3 Zrotation Yrotation Xrotation
		JOINT LeftUpLeg
		{
			OFFSET 1.363060 -1.794630 0.839290
			CHANNELS 3 Zrotation Yrotation Xrotation
			JOINT LeftLeg
			{
				OFFSET 2.448110 -6.726130 0.000000
				CHANNELS 3 Zrotation Yrotation Xrotation
				JOINT LeftFoot
				{
					OFFSET 2.562200 -7.039590 0.000000
					CHANNELS 3 Zrotation Yrotation Xrotation
					JOINT LeftToeBase
					{
						OFFSET 0.157640 -0.433110 2.322550
						CHANNELS 3 Zrotation Yrotation Xrotation
						End Site
						{
							OFFSET 0.000000 0.000000 0.000000
						}
					}
				}
			}
		}
	}
	JOINT RHipJoint
	{
		OFFSET 0.000000 0.000000 0.000000
		CHANNELS 3 Zrotation Yrotation Xrotation
		JOINT RightUpLeg
		{
			OFFSET -1.305520 -1.794630 0.839290
			CHANNELS 3 Zrotation Yrotation Xrotation
			JOINT RightLeg
			{
				OFFSET -2.542530 -6.985550 0.000000
				CHANNELS 3 Zrotation Yrotation Xrotation
				JOINT RightFoot
				{
					OFFSET -2.568260 -7.056230 0.000000
					CHANNELS 3 Zrotation Yrotation Xrotation
					JOINT RightToeBase
					{
						OFFSET -0.164730 -0.452590 2.363150
						CHANNELS 3 Zrotation Yrotation Xrotation
						End Site
						{
							OFFSET 0.000000 0.000000 0.000000
						}
					}
				}
			}
		}
	}
}
MOTION
Frames: 16
Frame Time: 0.008333
2.259951 16.153138 1.111913 -49.262286 -77.762341 39.325651 -11.653686 -2.284725 -6.814663 -4.283964 0.704012 -2.810121 -0.223852 3.372062 46.615822 4.674067 25.371844 -25.465056 -7.848300 -0.000001 -20.889300 6.053879 6.657437 0.167706 18.920079 -18.107535 -97.855891 3.663207 0.918290 3.824187 0.186905 -9.671358 -8.088327 -3.837600 0.000000 -64.431801
2.259461 16.154954 1.105131 -47.277103 -77.744312 37.295563 -11.643997 -2.265814 -6.814955 -4.604578 0.665532 -2.672125 -0.241752 3.356738 46.453248 4.652226 25.215952 -25.397494 -7.775200 -0.000000 -20.948700 6.101753 6.735622 0.188161 17.984037 -18.782562 -97.518913 3.472000 0.796184 4.872441 0.347368 -10.460123 -9.386824 -4.068600 -0.000000 -63.446600
2.256498 16.159154 1.100191 -45.194172 -77.764531 35.296860 -11.618281 -2.236191 -6.777370 -4.997094 0.645113 -2.730006 -0.259681 3.323499 46.311785 4.632012 25.072883 -25.337150 -7.713100 0.000000 -20.939600 6.218763 6.840067 0.302978 16.046750 -19.344280 -95.837059 3.086701 0.802403 4.809028 0.341805 -12.178160 -9.718440 -4.531300 -0.000000 -63.022701
2.251493 16.165373 1.096918 -43.134836 -77.801896 33.412993 -11.584804 -2.197051 -6.703447 -5.404219 0.660684 -2.948008 -0.277682 3.275971 46.188333 4.608271 24.914604 -25.285912 -7.653700 0.000000 -20.894400 6.387851 6.951491 0.478847 13.281749 -19.723154 -92.856605 2.550616 0.917719 3.692248 0.099753 -14.618155 -9.008567 -5.170800 -0.000000 -63.073699
2.244924 16.173669 1.095413 -41.391118 -77.833423 31.881247 -11.555567 -2.146289 -6.589903 -5.724410 0.748474 -3.281884 -0.295838 3.218963 46.077525 4.572130 24.696495 -25.242050 -7.581701 -0.000000 -20.881100 6.576478 7.037969 0.653434 10.164447 -19.843874 -88.795205 1.960899 1.112678 1.609116 -0.488680 -17.331393 -7.138270 -5.872600 -0.000000 -63.513100
2.237860 16.184185 1.096175 -40.300584 -77.835804 30.960552 -11.543314 -2.080243 -6.432870 -5.852600 0.936531 -3.660974 -0.314278 3.158789 45.964089 4.515430 24.379673 -25.199491 -7.481900 0.000000 -20.959000 6.747401 7.069921 0.741409 7.370926 -19.718747 -84.030850 1.446144 1.349819 -1.301071 -1.477921 -19.673454 -4.017263 -6.476900 -0.000000 -64.296799
2.231229 16.197396 1.100017 -40.006605 -77.784007 30.704008 -11.557988 -1.992595 -6.226913 -5.740178 1.212625 -3.971530 -0.332811 3.101650 45.812034 4.436631 23.959260 -25.144245 -7.345600 -0.000000 -21.151000 6.864962 7.030689 0.641511 5.661833 -19.542172 -79.013908 1.139253 1.595490 -4.908551 -2.767385 -20.842338 0.334048 -6.749300 -0.000000 -65.408800
2.225447 16.213400 1.106889 -40.311933 -77.662927 30.867016 -11.603834 -1.886891 -5.991138 -5.426956 1.521747 -4.089646 -0.352007 3.053316 45.570373 4.342647 23.468224 -25.058486 -7.173900 -0.000000 -21.456900 6.921661 6.924787 0.330963 5.218109 -19.557141 -74.427577 1.095738 1.745061 -8.152521 -3.909418 -20.404241 5.050528 -6.543599 -0.000000 -66.503900
2.219989 16.231985 1.115088 -40.732658 -77.490691 31.104930 -11.681181 -1.806289 -5.828091 -5.024203 1.786026 -3.995710 -0.377139 3.018110 45.203750 4.245389 22.946619 -24.935292 -6.975299 0.000000 -21.811500 6.930231 6.750065 0.083597 5.325292 -19.743209 -74.113678 1.415195 1.199426 -3.458119 -3.544689 -18.347322 5.279982 -5.883300 0.000000 -67.282000
2.214135 16.253096 1.122705 -41.132919 -77.251291 31.144103 -11.766929 -1.710983 -5.638747 -4.580162 2.005133 -3.650081 -0.399175 2.984941 44.707945 4.147063 22.422478 -24.760964 -6.756300 -0.000000 -22.196800 6.884000 6.562195 -0.344947 6.055254 -20.279309 -73.745841 1.792864 0.622971 1.085280 -3.031188 -15.677250 5.533589 -5.014400 0.000001 -67.507200
2.207354 16.277001 1.128396 -41.451330 -76.989492 31.014653 -11.849756 -1.605948 -5.434521 -4.137211 2.191432 -3.155187 -0.418348 2.949524 44.102741 4.050279 21.909250 -24.534671 -6.522301 0.000000 -22.601201 6.826856 6.370853 -0.854743 6.915331 -21.001052 -73.043665 2.122299 0.080658 5.103779 -2.521467 -13.088031 5.775761 -4.170700 -0.000000 -67.301600
2.199492 16.303947 1.131566 -41.669947 -76.742918 30.776747 -11.921759 -1.495523 -5.223244 -3.728821 2.352878 -2.601768 -0.434745 2.908032 43.407111 3.957833 21.422729 -24.255992 -6.279400 -0.000001 -23.013999 6.785857 6.179414 -1.366847 7.683830 -21.776287 -71.989034 2.367544 -0.388011 8.515371 -2.102607 -10.941231 5.919255 -3.459100 -0.000000 -66.995100
2.190351 16.334055 1.132041 -41.764882 -76.530122 30.453095 -11.978859 -1.381832 -5.007176 -3.380551 2.484384 -2.041401 -0.448216 2.858470 42.634933 3.872640 20.979364 -23.926193 -6.033700 0.000000 -23.420900 6.772545 5.988400 -1.839784 8.297720 -22.537841 -70.675620 2.531797 -0.777752 11.426265 -1.805913 -9.378777 5.881616 -2.914700 -0.000000 -66.905500
2.179748 16.367104 1.129707 -41.715166 -76.353736 30.037317 -12.020093 -1.265622 -4.785581 -3.106241 2.573992 -1.491890 -0.458557 2.800898 41.796306 3.796839 20.591468 -23.548401 -5.790000 0.000000 -23.808300 6.788270 5.798161 -2.262570 8.757065 -23.266746 -69.205840 2.628672 -1.103441 14.008799 -1.631769 -8.431102 5.626457 -2.540400 0.000000 -67.213499
2.167659 16.402582 1.124689 -41.519707 -76.205178 29.521011 -12.047199 -1.147035 -4.557464 -2.905639 2.609640 -0.946967 -0.465518 2.737206 40.899352 3.731494 20.265371 -23.126837 -5.551100 0.000000 -24.176801 6.828816 5.609127 -2.643538 9.083880 -23.973192 -67.646843 2.670949 -1.384931 16.418969 -1.566480 -8.065901 5.173818 -2.319300 0.000000 -67.932400
2.153639 16.439894 1.116935 -41.171045 -76.071501 28.887994 -12.062243 -1.025950 -4.322085 -2.773536 2.581163 -0.395957 -0.469209 2.669682 39.954203 3.676797 20.001026 -22.669418 -5.318800 0.000001 -24.522300 6.890211 5.422215 -2.993709 9.282144 -24.668304 -66.032026 2.666357 -1.639955 18.778193 -1.593456 -8.223563 4.583518 -2.225101 0.000000 -68.897000
